<?xml version="1.0" encoding="utf-8"?><svg version="1.1" id="Capa_1" xmlns="http://www.w3.org/2000/svg" xmlns:xlink="http://www.w3.org/1999/xlink" x="0px" y="0px" viewBox="0 0 800 800" style="enable-background:new 0 0 800 800;" xml:space="preserve"><g><path d="M794.5,385.2c-1.8-2.1-44.8-51.4-114.5-101.1c-93.2-66.6-190-101.8-280-101.8c-49.8,0-101.7,10.8-154,31.7L110.5,78.5l-32,32l611,611l32-32L598,566c27.5-14,54.9-30.7,82-50c69.7-49.8,112.7-99.1,114.5-101.1C801.8,406.3,801.8,393.7,794.5,385.2zM652.8,479.8c-24.5,17.5-54.7,36.3-88.7,52.4l-50.3-50.3c16.6-23,26.4-51.3,26.4-81.8c0-12.5-10.1-22.6-22.6-22.6c-12.5,0-22.6,10.1-22.6,22.6c0,18-5,34.9-13.8,49.2l-37.5-37.5c1-3.7,1.5-7.7,1.5-11.7c0-24.9-20.3-45.2-45.2-45.2c-4,0-8,0.5-11.7,1.5l-37.5-37.5C365.1,310,382,305,400,305c23,0,45.3,8.3,62.6,23.5c9.4,8.2,23.7,7.3,31.9-2.1c8.2-9.4,7.3-23.7-2.1-31.9c-25.6-22.4-58.4-34.7-92.4-34.7c-30.5,0-58.8,9.8-81.8,26.4l-37-37c37-13,77.1-21.6,118.9-21.6c101.3,0,193.4,50.4,252.8,92.7c43.3,30.8,76.2,62,93.5,79.8C729,417.7,696.1,448.9,652.8,479.8z"/><path d="M400,572.4c-101.3,0-193.4-50.4-252.8-92.7c-43.3-30.8-76.2-62-93.5-79.8c17.4-17.7,50.2-48.9,93.5-79.8c17.3-12.3,37.3-25.3,59.5-37.5l-33.2-33.2c-17.9,10.4-35.8,21.9-53.5,34.5C50.3,333.8,7.3,383.1,5.5,385.2c-7.4,8.5-7.4,21.1,0,29.6c1.8,2.1,44.8,51.4,114.5,101.1c93.2,66.6,190,101.7,280,101.7c39.5,0,80.4-6.8,121.6-20l-36.5-36.5C457.9,568.2,429.3,572.4,400,572.4z"/><path d="M270.4,346.4c-6.9,16.5-10.7,34.6-10.7,53.6c0,77.3,62.9,140.3,140.3,140.3c19,0,37.1-3.8,53.6-10.6l-36.2-36.2c-5.6,1-11.5,1.6-17.4,1.6c-52.4,0-95-42.6-95-95c0-5.9,0.6-11.8,1.6-17.4L270.4,346.4z"/></g></svg>
