<svg fill="#000000" height="64px" width="64px" version="1.1" id="Capa_1" xmlns="http://www.w3.org/2000/svg" xmlns:xlink="http://www.w3.org/1999/xlink" viewBox="-7 -7 83.96 83.96" xml:space="preserve" stroke="#000000"><g id="SVGRepo_bgCarrier" stroke-width="0"></g><g id="SVGRepo_tracerCarrier" stroke-linecap="round" stroke-linejoin="round"></g><g id="SVGRepo_iconCarrier"> <g> <path d="M66.829,51.329L56.593,41.093c1.479-3.56,2.248-7.387,2.248-11.282c0-16.222-13.198-29.42-29.421-29.42 C13.198,0.391,0,13.589,0,29.811c0,16.223,13.198,29.421,29.42,29.421c4.318,0,8.518-0.932,12.37-2.724l9.931,9.932 c2.019,2.019,4.701,3.13,7.556,3.13s5.539-1.112,7.557-3.132c2.016-2.015,3.127-4.698,3.127-7.553 C69.96,56.032,68.849,53.348,66.829,51.329z M62.588,62.198c-0.914,0.915-2.113,1.372-3.312,1.372s-2.397-0.457-3.313-1.372 L42.798,49.031c-3.794,2.646-8.403,4.201-13.378,4.201C16.485,53.232,6,42.746,6,29.811s10.485-23.42,23.42-23.42 s23.421,10.485,23.421,23.42c0,4.57-1.314,8.832-3.578,12.438l13.325,13.325C64.418,57.403,64.418,60.369,62.588,62.198z"></path> <path d="M29.42,13.061c-9.235,0-16.749,7.514-16.749,16.75s7.514,16.75,16.749,16.75c9.236,0,16.75-7.514,16.75-16.75 S38.656,13.061,29.42,13.061z M29.42,40.561c-5.927,0-10.749-4.822-10.749-10.75s4.822-10.75,10.749-10.75 c5.928,0,10.75,4.822,10.75,10.75S35.348,40.561,29.42,40.561z"></path> </g> </g></svg>
